<svg xmlns="http://www.w3.org/2000/svg" aria-hidden="true">
  <defs>
    <linearGradient id="qci-emerald" x1="0%" y1="0%" x2="100%" y2="100%">
      <stop offset="0%" stop-color="#3ecf8e"/>
      <stop offset="100%" stop-color="#22c55e"/>
    </linearGradient>
    <linearGradient id="qci-rose" x1="0%" y1="100%" x2="100%" y2="0%">
      <stop offset="0%" stop-color="#f472b6"/>
      <stop offset="100%" stop-color="#eb488c"/>
    </linearGradient>
  </defs>
  <symbol id="back" viewBox="0 0 24 24">
    <path fill="currentColor" d="M14.5 5.5 8 12l6.5 6.5 1.4-1.4L10.8 12l5.1-5.1z"/>
  </symbol>
  <symbol id="forward" viewBox="0 0 24 24">
    <path fill="currentColor" d="m9.5 5.5 6.5 6.5-6.5 6.5-1.4-1.4 5.1-5.1-5.1-5.1z"/>
  </symbol>
  <symbol id="reload" viewBox="0 0 24 24">
    <path fill="none" stroke="currentColor" stroke-width="1.8" stroke-linecap="round" d="M18 10a6 6 0 1 0-1.2 3.6"/>
    <path fill="currentColor" d="M18 6v4h-4l1.6-1.6A6 6 0 0 1 18 6z"/>
  </symbol>
  <symbol id="start" viewBox="0 0 24 24">
    <rect x="3" y="3" width="18" height="18" rx="4" fill="#0a120e" stroke="url(#qci-emerald)" stroke-width="1.4"/>
    <path fill="url(#qci-emerald)" d="M12 6.5 13.6 10h3.8l-3.1 2.2 1.2 3.7L12 14.3 8.5 16l1.2-3.7-3.1-2.2h3.8z"/>
    <circle cx="18" cy="7" r="1.6" fill="url(#qci-rose)"/>
  </symbol>
  <symbol id="new-tab" viewBox="0 0 24 24">
    <path fill="currentColor" d="M11 5h2v6h6v2h-6v6h-2v-6H5v-2h6z"/>
  </symbol>
  <symbol id="minimize" viewBox="0 0 24 24">
    <path fill="currentColor" d="M6 13h12v2H6z"/>
  </symbol>
  <symbol id="drop" viewBox="0 0 24 24">
    <path fill="none" stroke="currentColor" stroke-width="1.7" stroke-linecap="round" d="M8 9h8M12 6v9"/>
    <path fill="currentColor" d="M9.5 14.5 12 18l2.5-3.5z"/>
    <rect x="5" y="18" width="14" height="2" rx="1" fill="currentColor" opacity=".55"/>
  </symbol>
  <symbol id="rise" viewBox="0 0 24 24">
    <rect x="5" y="4" width="14" height="2" rx="1" fill="currentColor" opacity=".55"/>
    <path fill="currentColor" d="M9.5 9.5 12 6l2.5 3.5z"/>
    <path fill="none" stroke="currentColor" stroke-width="1.7" stroke-linecap="round" d="M8 15h8M12 9v9"/>
  </symbol>
  <symbol id="fullscreen" viewBox="0 0 24 24">
    <path fill="none" stroke="currentColor" stroke-width="1.7" stroke-linecap="round" d="M8 4H4v4M16 4h4v4M4 16v4h4M20 16v4h-4"/>
  </symbol>
  <symbol id="proxy" viewBox="0 0 24 24">
    <path fill="none" stroke="currentColor" stroke-width="1.6" d="M7 8a5 5 0 0 1 9.2-1.5M17 16a5 5 0 0 1-9.2 1.5"/>
    <path fill="currentColor" d="M16 5h3v3h-2V7h-1zM5 16h3v3H6v-2H5z"/>
  </symbol>
  <symbol id="gates" viewBox="0 0 24 24">
    <path fill="none" stroke="currentColor" stroke-width="1.7" d="M12 4 20 12 12 20 4 12z"/>
    <circle cx="12" cy="12" r="2.2" fill="url(#qci-rose)"/>
  </symbol>
  <symbol id="inspect" viewBox="0 0 24 24">
    <path fill="none" stroke="currentColor" stroke-width="1.6" d="M4 7h16M4 12h10M4 17h7"/>
    <rect x="14" y="10" width="7" height="9" rx="1.2" fill="none" stroke="url(#qci-rose)" stroke-width="1.5"/>
    <path fill="url(#qci-emerald)" d="M15.5 12.5h4v1.5h-4zM15.5 15.5h3v1.5h-3z"/>
  </symbol>
  <symbol id="styles" viewBox="0 0 24 24">
    <path fill="currentColor" d="M12 2.5c-1.6 2.4-4.2 2.8-4.2 7 0 2.4 1.5 4.3 3.7 5.1V20h1v3.5h3V20h1v-5.4c2.2-.8 3.7-2.7 3.7-5.1 0-4.2-2.6-4.6-4.2-7zm0 2.4c.9 1.3 1.7 2.1 1.7 3.6 0 1.6-1.1 2.7-1.7 2.7s-1.7-1.1-1.7-2.7c0-1.5.8-2.3 1.7-3.6z"/>
    <circle cx="18" cy="6" r="1.5" fill="url(#qci-rose)"/>
    <circle cx="6" cy="8" r="1.2" fill="url(#qci-emerald)" opacity=".85"/>
  </symbol>
  <symbol id="popout" viewBox="0 0 24 24">
    <rect x="4" y="8" width="11" height="11" rx="1.5" fill="none" stroke="currentColor" stroke-width="1.5"/>
    <path fill="none" stroke="currentColor" stroke-width="1.5" d="M11 4h9v9"/>
  </symbol>
  <symbol id="tab-fs" viewBox="0 0 24 24">
    <path fill="none" stroke="currentColor" stroke-width="1.6" stroke-linecap="round" d="M6 9V6h3M18 9V6h-3M6 15v3h3M18 15v3h-3"/>
  </symbol>
  <symbol id="close" viewBox="0 0 24 24">
    <path fill="currentColor" d="M7.4 6 12 10.6 16.6 6 18 7.4 13.4 12 18 16.6 16.6 18 12 13.4 7.4 18 6 16.6 10.6 12 6 7.4z"/>
  </symbol>
  <symbol id="bookmarks" viewBox="0 0 24 24">
    <path fill="none" stroke="currentColor" stroke-width="1.6" d="M6 4h12v16l-6-4-6 4z"/>
    <path fill="url(#qci-emerald)" d="M8.5 7.5h7v1.4h-7zM8.5 10.5h5v1.4h-5z"/>
  </symbol>
  <symbol id="queen-mark" viewBox="0 0 24 24">
    <rect x="2" y="2" width="20" height="20" rx="5" fill="#020403" stroke="#1a4d32" stroke-width="1.2"/>
    <path fill="url(#qci-emerald)" d="M12 5.5 13.4 9.2H17l-2.8 2 1.1 3.4L12 13.1 8.7 14.6l1.1-3.4-2.8-2h3.6z"/>
    <path stroke="url(#qci-rose)" stroke-width="1.2" fill="none" d="M6 18c2-1.5 4-1.5 6 0s4 1.5 6 0"/>
  </symbol>
</svg>