<svg xmlns="http://www.w3.org/2000/svg" viewBox="0 0 64 64" role="img" aria-label="Hostess 7 Training Chamber">
  <defs>
    <linearGradient id="bg" x1="0" y1="0" x2="0" y2="1">
      <stop offset="0%" stop-color="#0c1424"/>
      <stop offset="100%" stop-color="#040810"/>
    </linearGradient>
    <linearGradient id="glow" x1="0.5" y1="0" x2="0.5" y2="1">
      <stop offset="0%" stop-color="#38bdf8"/>
      <stop offset="100%" stop-color="#0ea5e9"/>
    </linearGradient>
  </defs>
  <rect width="64" height="64" rx="12" fill="url(#bg)"/>
  <circle cx="32" cy="34" r="18" fill="none" stroke="url(#glow)" stroke-width="2" opacity="0.35"/>
  <path fill="none" stroke="#38bdf8" stroke-width="2.2" stroke-linecap="round"
    d="M32 14v6M26 20h12M24 26c0-4 3.6-8 8-8s8 4 8 8v14c0 3-2 6-8 6s-8-3-8-6V26z"/>
  <path fill="none" stroke="#7dd3fc" stroke-width="1.8" stroke-linecap="round"
    d="M22 38l-6 10M42 38l6 10M32 48v8"/>
  <path fill="#38bdf8" opacity="0.9"
    d="M30 8l2-4 2 4 4 1-3 3 1 4-4-2-4 2 1-4-3-3z"/>
</svg>