<svg xmlns="http://www.w3.org/2000/svg" viewBox="0 0 900 300" width="900" height="300" role="img">
<rect width="900" height="300" fill="#060806"/>
<defs><marker id="arrow" markerWidth="8" markerHeight="8" refX="6" refY="3" orient="auto"><path d="M0,0 L6,3 L0,6 Z" fill="#5a7a3a"/></marker></defs>
<rect x="30" y="80" width="150" height="100" rx="4" fill="#141810" stroke="#2a3324" stroke-width="1.5"/>
<text x="42" y="102" fill="#7faa55" font-family="Segoe UI,system-ui,sans-serif" font-size="13" font-weight="600">Reboot / start</text>
<text x="42" y="122" fill="#c5d4b0" font-family="Consolas,monospace" font-size="11">systemd ExecStartPre</text>
<text x="42" y="138" fill="#c5d4b0" font-family="Consolas,monospace" font-size="11">nexus-boot-impl.sh</text><line x1="180" y1="130" x2="200" y2="130" stroke="#5a7a3a" stroke-width="2" marker-end="url(#arrow)"/><rect x="200" y="80" width="150" height="100" rx="4" fill="#1a1f14" stroke="#2a3324" stroke-width="1.5"/>
<text x="212" y="102" fill="#7faa55" font-family="Segoe UI,system-ui,sans-serif" font-size="13" font-weight="600">Boot impl</text>
<text x="212" y="122" fill="#c5d4b0" font-family="Consolas,monospace" font-size="11">wire-stack · paths</text>
<text x="212" y="138" fill="#c5d4b0" font-family="Consolas,monospace" font-size="11">sense meld · front-hook</text><line x1="350" y1="130" x2="370" y2="130" stroke="#5a7a3a" stroke-width="2" marker-end="url(#arrow)"/><rect x="370" y="80" width="150" height="100" rx="4" fill="#141810" stroke="#2a3324" stroke-width="1.5"/>
<text x="382" y="102" fill="#7faa55" font-family="Segoe UI,system-ui,sans-serif" font-size="13" font-weight="600">First install?</text>
<text x="382" y="122" fill="#c5d4b0" font-family="Consolas,monospace" font-size="11">migrate state</text>
<text x="382" y="138" fill="#c5d4b0" font-family="Consolas,monospace" font-size="11">sign MANIFEST</text><line x1="520" y1="130" x2="540" y2="130" stroke="#5a7a3a" stroke-width="2" marker-end="url(#arrow)"/><rect x="540" y="80" width="150" height="100" rx="4" fill="#1a1f14" stroke="#2a3324" stroke-width="1.5"/>
<text x="552" y="102" fill="#7faa55" font-family="Segoe UI,system-ui,sans-serif" font-size="13" font-weight="600">Daemon</text>
<text x="552" y="122" fill="#c5d4b0" font-family="Consolas,monospace" font-size="11">integrity verify</text>
<text x="552" y="138" fill="#c5d4b0" font-family="Consolas,monospace" font-size="11">panel + watchers</text><line x1="690" y1="130" x2="710" y2="130" stroke="#5a7a3a" stroke-width="2" marker-end="url(#arrow)"/><rect x="710" y="80" width="150" height="100" rx="4" fill="#141810" stroke="#2a3324" stroke-width="1.5"/>
<text x="722" y="102" fill="#7faa55" font-family="Segoe UI,system-ui,sans-serif" font-size="13" font-weight="600">Browser</text>
<text x="722" y="122" fill="#c5d4b0" font-family="Consolas,monospace" font-size="11">panel-launched.boot</text>
<text x="722" y="138" fill="#c5d4b0" font-family="Consolas,monospace" font-size="11">open /field</text><rect x="220" y="210" width="460" height="70" rx="4" fill="#141810" stroke="#6f9a52" stroke-width="1.5"/>
<text x="232" y="232" fill="#7faa55" font-family="Segoe UI,system-ui,sans-serif" font-size="13" font-weight="600">Markers</text>
<text x="232" y="252" fill="#c5d4b0" font-family="Consolas,monospace" font-size="11">first-boot.complete — full impl once</text>
<text x="232" y="268" fill="#c5d4b0" font-family="Consolas,monospace" font-size="11">boot-impl.last — mode=refresh each boot</text></svg>
